<?xml version="1.0" encoding="utf-8"?>
<!-- Generator: Adobe Illustrator 19.2.1, SVG Export Plug-In . SVG Version: 6.00 Build 0)  -->
<svg version="1.1" id="layer" xmlns="http://www.w3.org/2000/svg" xmlns:xlink="http://www.w3.org/1999/xlink" x="0px" y="0px"
	 viewBox="0 0 652 652" style="enable-background:new 0 0 652 652;" xml:space="preserve">
<style type="text/css">
	.st0{fill:#0678BE;}
</style>
<path class="st0" d="M118.8,275.6c-10.9-10.9-25.5-17-40.9-17c-31.9,0-57.9,26-57.9,57.9s26,57.9,57.9,57.9s57.9-26,57.9-57.9
	C135.9,301,129.8,286.5,118.8,275.6z M77.9,354.1c-17.5,0-31.7-14.3-31.7-31.7c0-14.8,9.9-24.7,18.7-33.5
	c5.8-5.8,11.4-11.4,13.1-17.7c1.7,6.3,7.2,11.9,13.1,17.7c8.7,8.7,18.7,18.7,18.7,33.5C109.6,339.8,95.4,354.1,77.9,354.1z"/>
<path id="path3470" class="st0" d="M296.4,291.2c-16.3-3.8-26.6,12.4-27,13.3c-0.2,0.4-0.2,0.7-0.9,0.7c-0.6,0-0.7-0.7-0.7-0.7
	l-2-12.4h-16.9v70.7h19v-38.3c0-3.1,8.4-18.1,24.7-14.3c8.3,2,11.8,5.5,11.8,5.5s0-13.6,0-21.5C301.3,292.6,299.2,291.8,296.4,291.2
	"/>
<path id="path3472" class="st0" d="M423.7,309.1c10.5,0,19,8.5,19,18.9c0,10.5-8.5,19-19,19c-10.5,0-18.9-8.5-18.9-19
	C404.8,317.6,413.3,309.1,423.7,309.1z M405.3,386.1v-25.4c0,0,0,0,0,0l0-9.5c0,0,0-0.8,0.7-0.8c0.6,0,0.7,0.4,0.9,0.8
	c1.4,3.6,9.4,17.2,26.9,13c15.7-4.4,27.3-18.9,27.3-36c0-20.7-16.8-37.4-37.4-37.4c-20.7,0-37.4,16.8-37.4,37.4c0,0,0,51.2,0,58
	H405.3"/>
<path id="path3448" class="st0" d="M379.6,292h-19l0,35.6c0,10.4-4.5,18.8-14.8,18.8c-10.4,0-14.9-8.4-14.9-18.8V292h-19l0,35.5
	c0,20.5,13.2,37.2,33.7,37.2c20.5,0,33.9-16.6,33.9-37.2L379.6,292"/>
<path id="path3450" class="st0" d="M551,270.3h18.9v92.6H551V270.3z"/>
<path id="path3452" class="st0" d="M583.8,273.7v-3.3h14.7v3.3h-5.4v14.7h-4v-14.7H583.8"/>
<path id="path3454" class="st0" d="M606.2,270.4l4.2,12.4h0.1l4-12.4h5.6v18h-3.7v-12.7h-0.1l-4.4,12.7h-3l-4.4-12.6h-0.1v12.6h-3.7
	v-18H606.2"/>
<path id="path3482" class="st0" d="M524.8,328.1c0,10.5-8.5,19-18.9,19c-10.5,0-19-8.5-19-19c0-10.5,8.5-18.9,19-18.9
	C516.3,309.1,524.8,317.6,524.8,328.1z M524.2,362.9h19v-34.8c0-20.7-16.8-37.4-37.4-37.4c-20.7,0-37.4,16.8-37.4,37.4
	c0,17.2,11.5,31.6,27.3,36c17.6,4.3,25.5-9.4,26.9-13c0.1-0.4,0.3-0.8,0.9-0.8c0.7,0,0.7,0.8,0.7,0.8"/>
<path id="path3484" class="st0" d="M194.5,286.3h-7.6v60.4l7.8,0.2c16.1,0,26.4-1.5,26.4-30.4C221.1,288.8,212,286.3,194.5,286.3z
	 M189.3,362.7h-21.6v-92.4h23.2c28.1,0,49.4,5.2,49.4,46.2C240.3,357.2,217.7,362.7,189.3,362.7"/>
</svg>
